<svg width="128" height="121" viewBox="0 0 128 121" fill="none" xmlns="http://www.w3.org/2000/svg">
<path d="M121.033 51H87.9668C87.7103 51 87.4644 51.0969 87.2831 51.2693C87.1018 51.4417 87 51.6756 87 51.9196V92.0804C87 92.3244 87.1018 92.5583 87.2831 92.7307C87.4644 92.9031 87.7103 93 87.9668 93H121.033C121.16 93 121.286 92.9763 121.403 92.9299C121.52 92.8838 121.627 92.8161 121.717 92.7307C121.807 92.6453 121.878 92.5439 121.926 92.4322C121.975 92.3208 122 92.2012 122 92.0804V51.9196C122 51.7988 121.975 51.6792 121.927 51.5675C121.878 51.4561 121.807 51.3547 121.717 51.2693C121.627 51.1839 121.52 51.1162 121.403 51.0698C121.286 51.0237 121.16 51 121.033 51Z" fill="#BFBCAF"/>
<path d="M80.9294 32H38.0706C37.7866 32 37.5143 32.1063 37.3136 32.2953C37.1129 32.4843 37 32.7407 37 33.0082V90.9918C37 91.2593 37.1129 91.5157 37.3136 91.7047C37.5143 91.8937 37.7866 92 38.0706 92H80.9294C81.2134 92 81.4857 91.8937 81.6864 91.7047C81.8871 91.5157 82 91.2593 82 90.9918V33.0082C82 32.7407 81.8871 32.4843 81.6864 32.2953C81.4857 32.1063 81.2134 32 80.9294 32Z" fill="#A8A8A8"/>
<path d="M122.354 92.5097C122.182 92.5097 122.018 92.4449 121.897 92.3295C121.776 92.2142 121.708 92.0579 121.708 91.8947V74.547C121.708 74.3838 121.776 74.2275 121.897 74.1122C122.018 73.9968 122.182 73.932 122.354 73.932C122.525 73.932 122.689 73.9968 122.811 74.1122C122.932 74.2275 123 74.3838 123 74.547V91.8947C123 92.0579 122.932 92.2142 122.811 92.3295C122.689 92.4449 122.525 92.5097 122.354 92.5097ZM42.9676 91.0819V73.9181C42.9719 73.6676 42.9236 73.419 42.8258 73.1864C42.728 72.954 42.5824 72.7423 42.3978 72.5638C42.2132 72.3853 41.9932 72.2434 41.7503 72.1467C41.5077 72.05 41.2472 72 40.9839 72C40.7207 72 40.4602 72.05 40.2175 72.1467C39.9746 72.2434 39.7546 72.3853 39.57 72.5638C39.3852 72.7423 39.2399 72.954 39.1421 73.1864C39.0443 73.419 38.996 73.6676 39.0003 73.9181V91.0819C38.996 91.3324 39.0443 91.581 39.1421 91.8136C39.2399 92.046 39.3852 92.2577 39.57 92.4362C39.7546 92.6147 39.9746 92.7566 40.2175 92.8533C40.4602 92.95 40.7207 93 40.9839 93C41.2472 93 41.5077 92.95 41.7503 92.8533C41.9932 92.7566 42.2132 92.6147 42.3978 92.4362C42.5824 92.2577 42.728 92.046 42.8258 91.8136C42.9236 91.581 42.9719 91.3324 42.9676 91.0819Z" fill="#8E6049"/>
<path d="M33 56.9108C33 56.6691 32.8983 56.4375 32.7177 56.2667C32.5368 56.096 32.2915 56 32.0357 56H1.96432C1.70856 56 1.46329 56.096 1.28244 56.2667C1.1016 56.4375 1 56.6691 1 56.9108V74.5212C1 74.6477 1.02725 74.8958 1.0767 75.1963C1.02599 75.309 0.999904 75.4301 1 75.5526V92.0892C1 92.3309 1.1016 92.5625 1.28244 92.7333C1.46329 92.904 1.70856 93 1.96432 93H32.0357C32.2915 93 32.5368 92.904 32.7177 92.7333C32.8983 92.5625 33 92.3309 33 92.0892V75.5526C33 75.426 32.9725 75.3057 32.9233 75.1963C32.9727 74.8958 33 74.6477 33 74.5212V56.9108Z" fill="#597B91"/>
<path d="M97.355 72.0596H93.5426C93.0752 72.0596 92.627 71.8853 92.2966 71.5748C91.9659 71.2645 91.7803 70.8436 91.7803 70.4047V62.8893C91.7803 62.672 91.8258 62.4567 91.9145 62.256C92.003 62.0551 92.1327 61.8728 92.2966 61.7189C92.4602 61.5653 92.6543 61.4435 92.8683 61.3602C93.0819 61.2771 93.3112 61.2343 93.5426 61.2343H97.355C97.5865 61.2343 97.8158 61.2771 98.0294 61.3602C98.2434 61.4435 98.4375 61.5653 98.6014 61.7189C98.765 61.8728 98.8947 62.0551 98.9834 62.256C99.0719 62.4567 99.1175 62.672 99.1175 62.8893V70.4047C99.1175 70.8436 98.9318 71.2645 98.6014 71.5748C98.2707 71.8853 97.8225 72.0596 97.355 72.0596ZM117 70.4049V62.8896C117 62.6722 116.954 62.4569 116.866 62.2563C116.777 62.0554 116.648 61.873 116.484 61.7192C116.32 61.5656 116.126 61.4437 115.912 61.3604C115.698 61.2774 115.469 61.2346 115.238 61.2346H111.425C111.194 61.2346 110.964 61.2774 110.751 61.3604C110.537 61.4437 110.343 61.5656 110.179 61.7192C110.015 61.873 109.886 62.0554 109.797 62.2563C109.708 62.4569 109.663 62.6722 109.663 62.8896V70.4049C109.663 70.8439 109.848 71.2647 110.179 71.575C110.51 71.8856 110.958 72.0599 111.425 72.0599H115.238C115.469 72.0599 115.698 72.0171 115.912 71.9338C116.126 71.8507 116.32 71.7289 116.484 71.575C116.648 71.4214 116.777 71.2391 116.866 71.0382C116.954 70.8375 117 70.6223 117 70.4049ZM55.0201 61.3875V49.5965C55.0201 48.1624 53.7823 47 52.2551 47H46.2735C44.7463 47 43.5085 48.1624 43.5085 49.5965V61.3875C43.5085 62.8216 44.7463 63.984 46.2735 63.984H52.2551C53.7823 63.9837 55.0201 62.8213 55.0201 61.3875ZM73.205 75.8651H60.153V92H73.205V75.8651ZM26.6528 70.6827V63.4972C26.6528 63.2895 26.6092 63.0836 26.5246 62.8917C26.4399 62.6997 26.3159 62.5254 26.1593 62.3784C26.003 62.2313 25.8171 62.1149 25.6127 62.0354C25.4082 61.9558 25.189 61.9149 24.9678 61.9149H21.3226C20.8757 61.9149 20.4471 62.0817 20.1311 62.3784C19.8151 62.675 19.6376 63.0775 19.6376 63.4972V70.6827C19.6376 71.1024 19.8151 71.5049 20.1311 71.8016C20.4471 72.0982 20.8757 72.265 21.3226 72.265H24.9678C25.189 72.265 25.4082 72.2241 25.6127 72.1446C25.8171 72.0651 26.003 71.9486 26.1593 71.8016C26.3159 71.6545 26.4399 71.4802 26.5246 71.2883C26.6092 71.0963 26.6528 70.8904 26.6528 70.6827ZM26.6528 85.6421V78.4566C26.6528 78.2489 26.6092 78.043 26.5246 77.8511C26.4399 77.6591 26.3159 77.4845 26.1593 77.3377C26.003 77.1907 25.8171 77.0743 25.6127 76.9947C25.4082 76.9152 25.189 76.8743 24.9678 76.8743H21.3226C20.8757 76.8743 20.4471 77.0411 20.1311 77.3377C19.8151 77.6344 19.6376 78.0369 19.6376 78.4566V85.6421C19.6376 86.0618 19.8151 86.4643 20.1311 86.761C20.4471 87.0576 20.8757 87.2244 21.3226 87.2244H24.9678C25.189 87.2244 25.4082 87.1835 25.6127 87.104C25.8171 87.0244 26.003 86.9077 26.1593 86.761C26.3159 86.6139 26.4399 86.4396 26.5246 86.2476C26.6092 86.0557 26.6528 85.8498 26.6528 85.6421ZM0.981164 57.5171H32.2221C33.1919 57.5171 33.5719 56.3355 32.764 55.8313L17.1436 49.2309C16.9831 49.1307 16.7946 49.0773 16.6018 49.0773C16.409 49.0773 16.2205 49.1307 16.0599 49.2309L0.439292 55.8313C-0.368632 56.3352 0.0114051 57.5171 0.981164 57.5171Z" fill="#2B3B47"/>
<path d="M91 72.352V72.648C91 72.211 91.1514 71.7919 91.4208 71.4828C91.6901 71.1738 92.0554 71 92.4362 71H98.9581C99.3389 71 99.7042 71.1738 99.9738 71.4828C100.243 71.7919 100.394 72.211 100.394 72.648V72.352C100.394 72.789 100.243 73.2081 99.9738 73.5175C99.7042 73.8265 99.3389 74 98.9581 74H92.4362C92.0554 74 91.6901 73.8265 91.4208 73.5175C91.1514 73.2081 91 72.789 91 72.352ZM110.409 74H116.564C116.945 74 117.31 73.8265 117.579 73.5175C117.849 73.2081 118 72.789 118 72.352V72.648C118 72.211 117.849 71.7919 117.579 71.4828C117.31 71.1738 116.945 71 116.564 71H110.409C110.028 71 109.663 71.1738 109.394 71.4828C109.124 71.7919 108.973 72.211 108.973 72.648V72.352C108.973 72.789 109.124 73.2081 109.394 73.5175C109.663 73.8265 110.028 74 110.409 74Z" fill="#8E7B70"/>
<path d="M86.2428 53H122.757C124.11 53 124.487 51.2111 123.241 50.7027L104.958 42.0949C104.804 42.0323 104.64 42 104.473 42C104.307 42 104.142 42.0323 103.989 42.0949L85.7588 50.7027C84.513 51.2111 84.8902 53 86.2428 53Z" fill="#597B91"/>
<path d="M33.6879 32.574L58.1513 17.2417C58.4029 17.0841 58.6981 17 59.0001 17C59.3019 17 59.5973 17.0841 59.8487 17.2417L84.3121 32.574C85.5773 33.367 84.9821 35.2264 83.4633 35.2264H34.5367C33.0179 35.2264 32.4227 33.367 33.6879 32.574ZM75.496 80C76.68 80 77.5263 78.9495 77.2601 77.8611C76.2325 73.6628 72.245 70.533 67.4825 70.533C62.7201 70.533 58.7326 73.6628 57.705 77.8611C57.4385 78.9497 58.2848 80 59.4691 80H75.496Z" fill="#FF473E"/>
<path d="M110.505 93H99.4867V80.5952C99.4867 80.1038 99.6906 79.6325 100.053 79.2849C100.416 78.9376 100.908 78.7423 101.421 78.7423H108.57C109.083 78.7423 109.575 78.9376 109.938 79.2849C110.301 79.6325 110.504 80.1038 110.504 80.5952V93H110.505ZM122.205 79.4867C119.558 79.4867 117.411 81.5431 117.411 84.0797C117.411 86.6163 119.558 88.6727 122.205 88.6727C124.853 88.6727 127 86.6163 127 84.0797C127 81.5431 124.853 79.4867 122.205 79.4867ZM122.205 71.8068C120.421 71.8068 118.975 73.1925 118.975 74.9019C118.975 76.6112 120.421 77.9969 122.205 77.9969C123.99 77.9969 125.436 76.6112 125.436 74.9019C125.436 73.1925 123.99 71.8068 122.205 71.8068ZM41.6887 63.0512C41.5473 63.0079 41.3986 62.9919 41.2507 63.0038C41.1028 63.0158 40.9588 63.0553 40.8272 63.1207C40.6952 63.1858 40.578 63.2753 40.4823 63.384C40.3866 63.4924 40.3142 63.6181 40.2692 63.7535L39.9604 64.6813C39.8594 64.9765 39.7507 65.335 39.6195 65.7463C39.4724 66.2052 39.3304 66.6657 39.1933 67.1274C39.0426 67.6335 38.8707 68.1818 38.7045 68.7618L38.1808 70.5861C37.9944 71.2187 37.8267 71.8724 37.6426 72.5367C37.4639 73.2009 37.273 73.8757 37.0993 74.5505L36.5816 76.5643C36.4124 77.2285 36.2378 77.8822 36.0894 78.5149L35.2535 81.9733C35.0019 82.9856 34.9667 83.8291 35.0234 84.4194C35.0756 85.0099 35.2166 85.3472 35.2166 85.3472C35.8667 86.8901 37.1561 88.2059 38.8962 88.8721C42.2812 90.1678 46.1217 88.5896 47.4742 85.3472C47.4742 85.3472 47.6149 85.0097 47.6674 84.4194C47.7241 83.8289 47.6891 82.9853 47.4373 81.9733L46.6014 78.5149C46.453 77.8822 46.2786 77.2285 46.1092 76.5643L45.5915 74.5505C45.4178 73.8757 45.2269 73.2009 45.0482 72.5367C44.8643 71.8724 44.6964 71.2187 44.51 70.5861L43.9863 68.7618C43.8201 68.1818 43.6485 67.6337 43.4975 67.1274C43.3604 66.6657 43.2184 66.2052 43.0713 65.7463C42.9401 65.335 42.8314 64.9765 42.7304 64.6813L42.4216 63.7535C42.3661 63.5893 42.2707 63.44 42.1432 63.3179C42.0161 63.1958 41.8601 63.1044 41.6887 63.0512Z" fill="#009E83"/>
<path d="M11.05 81H10.95C8.21626 81 6 83.0617 6 85.6047V93H16V85.6047C16 83.0617 13.7837 81 11.05 81Z" fill="#76DFFF"/>
<path d="M102 88C102.552 88 103 87.5523 103 87C103 86.4477 102.552 86 102 86C101.448 86 101 86.4477 101 87C101 87.5523 101.448 88 102 88Z" fill="white"/>
</svg>
